<svg
	xmlns="http://www.w3.org/2000/svg"
	xmlnsXlink="http://www.w3.org/1999/xlink"
	viewBox="0 0 60 60"
>
	<path
		d="M22,12 a6,6 0 1 1 6,-6 v6z M22,16 a6,6 0 0 1 0,12 h-16 a6,6 0 1 1 0,-12"
		fill="#36C5F0"
	/>
	<path
        d="M48,22 a6,6 0 1 1 6,6 h-6z M32,6 a6,6 0 1 1 12,0v16a6,6 0 0 1 -12,0z"
        fill="#2EB67D"
	/>
	<path
        d="M38,48 a6,6 0 1 1 -6,6 v-6z M54,32 a6,6 0 0 1 0,12 h-16 a6,6 0 1 1 0,-12"
        fill="#ECB22E"
	/>
	<path
        d="M12,38 a6,6 0 1 1 -6,-6 h6z M16,38 a6,6 0 1 1 12,0v16a6,6 0 0 1 -12,0z"
        fill="#E01E5A"
	/>
</svg>